# Blender v2.79 (sub 0) OBJ File: 'Chest.blend'
# www.blender.org
mtllib Chest.mtl
o Cube
v 0.900000 0.100000 -0.950000
v -0.900000 0.100000 -0.950000
v 0.900000 1.900000 -0.950000
v 0.900000 0.100000 0.950000
v -0.900000 0.100000 0.950000
v 0.899999 1.900000 0.950001
v -0.900000 1.900000 0.950000
v -0.900000 1.900000 -0.950000
v 0.950000 0.100000 -0.900000
v 0.950000 0.100000 0.900000
v 0.950000 1.900000 -0.899999
v 0.949999 1.900000 0.900001
v -0.950000 0.100000 0.900000
v -0.950000 0.100000 -0.900000
v -0.950000 1.900000 0.900000
v -0.950000 1.900000 -0.900000
v 0.900000 1.950000 -0.899999
v 0.899999 1.950000 0.900001
v -0.900000 1.950000 -0.900000
v -0.900000 1.950000 0.900000
v 0.980000 0.000000 -0.980000
v 0.980000 0.020000 -1.000000
v 1.000000 0.020000 -0.980000
v 1.000000 0.020000 0.980000
v 0.980000 0.020000 1.000000
v 0.980000 0.000000 0.980000
v -0.980000 0.020000 1.000000
v -1.000000 0.020000 0.980000
v -0.980000 0.000000 0.980000
v -0.980000 0.000000 -0.980000
v -1.000000 0.020000 -0.980000
v -0.980000 0.020000 -1.000000
v 0.980000 1.980000 -0.999999
v 0.980000 2.000000 -0.979999
v 1.000000 1.980000 -0.979999
v 0.999999 1.980000 0.980001
v 0.979999 2.000000 0.980001
v 0.979999 1.980000 1.000001
v -0.980000 1.980000 1.000000
v -0.980000 2.000000 0.980000
v -1.000000 1.980000 0.980000
v -1.000000 1.980000 -0.980000
v -0.980000 2.000000 -0.980000
v -0.980000 1.980000 -1.000000
v 0.900000 0.100000 -0.980000
v 0.920000 0.080000 -1.000000
v -0.920000 0.080000 -1.000000
v -0.900000 0.100000 -0.980000
v 0.900000 1.900000 -0.980000
v 0.920000 1.920000 -1.000000
v 0.920000 0.080000 1.000000
v 0.900000 0.100000 0.980000
v -0.900000 0.100000 0.980000
v -0.920000 0.080000 1.000000
v 0.919999 1.920000 1.000001
v 0.899999 1.900000 0.980001
v -0.900000 1.900000 0.980000
v -0.920000 1.920000 1.000000
v -0.920000 1.920000 -1.000000
v -0.900000 1.900000 -0.980000
v 1.000000 0.080000 -0.920000
v 0.980000 0.100000 -0.900000
v 0.980000 0.100000 0.900000
v 1.000000 0.080000 0.920000
v 1.000000 1.920000 -0.919999
v 0.980000 1.900000 -0.899999
v 0.979999 1.900000 0.900001
v 0.999999 1.920000 0.920001
v -1.000000 0.080000 0.920000
v -0.980000 0.100000 0.900000
v -0.980000 0.100000 -0.900000
v -1.000000 0.080000 -0.920000
v -1.000000 1.920000 0.920000
v -0.980000 1.900000 0.900000
v -0.980000 1.900000 -0.900000
v -1.000000 1.920000 -0.920000
v 0.920000 2.000000 -0.919999
v 0.900000 1.980000 -0.899999
v 0.899999 1.980000 0.900001
v 0.919999 2.000000 0.920001
v -0.920000 2.000000 -0.920000
v -0.900000 1.980000 -0.900000
v -0.900000 1.980000 0.900000
v -0.920000 2.000000 0.920000
vn 0.0000 -0.0000 -1.0000
vn 0.0000 1.0000 0.0000
vn 1.0000 0.0000 -0.0000
vn -1.0000 0.0000 -0.0000
vn -0.0000 0.0000 1.0000
vn 0.0000 -1.0000 -0.0000
vn 0.5774 -0.5773 -0.5773
vn 0.5774 -0.5774 0.5774
vn -0.5774 -0.5774 0.5774
vn -0.5774 -0.5773 -0.5774
vn 0.5774 0.5773 -0.5774
vn 0.5774 0.5774 0.5774
vn -0.5774 0.5774 0.5774
vn -0.5774 0.5774 -0.5774
vn 0.7071 -0.7071 -0.0000
vn 0.0000 -0.7071 -0.7071
vn 0.7071 0.0000 -0.7071
vn -0.0000 -0.7071 0.7071
vn 0.7071 0.0000 0.7071
vn -0.7071 -0.7071 -0.0000
vn -0.7071 -0.0000 0.7071
vn -0.7071 0.0000 -0.7071
vn 0.7071 0.7071 0.0000
vn 0.0000 0.7071 -0.7071
vn -0.0000 0.7071 0.7071
vn -0.7071 0.7071 -0.0000
usemtl Material
s off
f 22//1 32//1 47//1 46//1
f 45//2 48//2 2//2 1//2
f 43//2 40//2 84//2 81//2
f 40//2 37//2 80//2 84//2
f 33//1 22//1 46//1 50//1
f 53//2 52//2 4//2 5//2
f 48//3 60//3 8//3 2//3
f 37//2 34//2 77//2 80//2
f 36//3 24//3 64//3 68//3
f 23//3 35//3 65//3 61//3
f 41//4 42//4 76//4 73//4
f 31//4 28//4 69//4 72//4
f 27//5 25//5 51//5 54//5
f 74//6 75//6 16//6 15//6
f 32//1 44//1 59//1 47//1
f 42//4 31//4 72//4 76//4
f 34//2 43//2 81//2 77//2
f 39//5 27//5 54//5 58//5
f 44//1 33//1 50//1 59//1
f 28//4 41//4 73//4 69//4
f 25//5 38//5 55//5 51//5
f 38//5 39//5 58//5 55//5
f 35//3 36//3 68//3 65//3
f 4//5 6//5 7//5 5//5
f 3//1 1//1 2//1 8//1
f 56//6 57//6 7//6 6//6
f 52//4 56//4 6//4 4//4
f 49//4 45//4 1//4 3//4
f 63//2 62//2 9//2 10//2
f 60//6 49//6 3//6 8//6
f 57//3 53//3 5//3 7//3
f 9//3 11//3 12//3 10//3
f 13//4 15//4 16//4 14//4
f 70//1 74//1 15//1 13//1
f 67//1 63//1 10//1 12//1
f 71//2 70//2 13//2 14//2
f 75//5 71//5 14//5 16//5
f 66//6 67//6 12//6 11//6
f 62//5 66//5 11//5 9//5
f 17//2 19//2 20//2 18//2
f 83//1 79//1 18//1 20//1
f 79//4 78//4 17//4 18//4
f 82//3 83//3 20//3 19//3
f 78//5 82//5 19//5 17//5
f 21//7 22//7 23//7
f 24//8 25//8 26//8
f 27//9 28//9 29//9
f 30//10 31//10 32//10
f 33//11 34//11 35//11
f 36//12 37//12 38//12
f 39//13 40//13 41//13
f 42//14 43//14 44//14
f 23//15 24//15 26//15 21//15
f 21//16 30//16 32//16 22//16
f 22//17 33//17 35//17 23//17
f 25//18 27//18 29//18 26//18
f 24//19 36//19 38//19 25//19
f 28//20 31//20 30//20 29//20
f 27//21 39//21 41//21 28//21
f 31//22 42//22 44//22 32//22
f 34//23 37//23 36//23 35//23
f 33//24 44//24 43//24 34//24
f 37//25 40//25 39//25 38//25
f 40//26 43//26 42//26 41//26
f 46//24 47//24 48//24 45//24
f 45//22 49//22 50//22 46//22
f 52//25 53//25 54//25 51//25
f 51//21 55//21 56//21 52//21
f 53//19 57//19 58//19 54//19
f 47//17 59//17 60//17 48//17
f 49//16 60//16 59//16 50//16
f 55//18 58//18 57//18 56//18
f 62//23 63//23 64//23 61//23
f 61//19 65//19 66//19 62//19
f 63//17 67//17 68//17 64//17
f 70//26 71//26 72//26 69//26
f 69//22 73//22 74//22 70//22
f 71//21 75//21 76//21 72//21
f 65//15 68//15 67//15 66//15
f 73//20 76//20 75//20 74//20
f 78//26 79//26 80//26 77//26
f 77//25 81//25 82//25 78//25
f 79//24 83//24 84//24 80//24
f 83//23 82//23 81//23 84//23
f 24//3 23//3 61//3 64//3
o Cube.002
v -0.963802 1.722381 -0.920000
v -0.722381 1.963802 -0.920000
v 0.722381 0.036197 -0.920000
v 0.963803 0.277619 -0.920000
v -0.927401 1.927401 -0.960000
v 0.927401 0.072599 -0.960000
v -0.965842 1.745634 -0.960000
v -0.963802 1.722381 -0.945000
v -0.722381 1.963802 -0.945000
v -0.745634 1.965842 -0.960000
v 0.722381 0.036197 -0.945000
v 0.745634 0.034158 -0.960000
v 0.965842 0.254366 -0.960000
v 0.963803 0.277619 -0.945000
vn 0.0000 0.0000 -1.0000
vn 0.7071 0.7071 0.0000
vn -0.5000 -0.5000 -0.7071
vn 0.5000 0.5000 -0.7071
vn -0.7071 -0.7071 -0.0000
usemtl None
s off
f 91//27 89//27 90//27 96//27
f 89//27 94//27 97//27 90//27
f 98//28 93//28 86//28 88//28
f 95//29 92//29 91//29 96//29
f 93//30 98//30 97//30 94//30
f 92//31 95//31 87//31 85//31
o Cube.001_Cube.003
v 0.920000 1.722381 -0.963803
v 0.920000 1.963802 -0.722381
v 0.920000 0.036197 0.722381
v 0.920000 0.277619 0.963803
v 0.960000 1.927401 -0.927401
v 0.960000 0.072599 0.927401
v 0.960000 1.745634 -0.965842
v 0.945000 1.722381 -0.963802
v 0.945000 1.963802 -0.722381
v 0.960000 1.965842 -0.745634
v 0.945000 0.036197 0.722381
v 0.960000 0.034158 0.745634
v 0.960000 0.254366 0.965842
v 0.945000 0.277619 0.963803
vn 1.0000 -0.0000 0.0000
vn 0.0000 0.7071 0.7071
vn 0.7071 -0.5000 -0.5000
vn 0.7071 0.5000 0.5000
vn 0.0000 -0.7071 -0.7071
usemtl None
s off
f 105//32 103//32 104//32 110//32
f 103//32 108//32 111//32 104//32
f 112//33 107//33 100//33 102//33
f 109//34 106//34 105//34 110//34
f 107//35 112//35 111//35 108//35
f 106//36 109//36 101//36 99//36
o Cube.003_Cube.004
v 0.963803 1.722381 0.920000
v 0.722381 1.963802 0.920000
v -0.722381 0.036197 0.920000
v -0.963803 0.277619 0.920000
v 0.927401 1.927401 0.960000
v -0.927401 0.072599 0.960000
v 0.965842 1.745634 0.960000
v 0.963803 1.722381 0.945000
v 0.722381 1.963802 0.945000
v 0.745634 1.965842 0.960000
v -0.722381 0.036198 0.945000
v -0.745634 0.034158 0.960000
v -0.965842 0.254366 0.960000
v -0.963803 0.277619 0.945000
vn -0.0000 -0.0000 1.0000
vn -0.7071 0.7071 0.0000
vn 0.5000 -0.5000 0.7071
vn -0.5000 0.5000 0.7071
vn 0.7071 -0.7071 0.0000
usemtl None
s off
f 119//37 117//37 118//37 124//37
f 117//37 122//37 125//37 118//37
f 126//38 121//38 114//38 116//38
f 123//39 120//39 119//39 124//39
f 121//40 126//40 125//40 122//40
f 120//41 123//41 115//41 113//41
o Cube.004_Cube.005
v -0.920000 1.722381 0.963803
v -0.920000 1.963802 0.722381
v -0.920000 0.036197 -0.722381
v -0.920000 0.277619 -0.963803
v -0.960000 1.927401 0.927401
v -0.960000 0.072599 -0.927401
v -0.960000 1.745634 0.965842
v -0.945000 1.722381 0.963803
v -0.945000 1.963802 0.722381
v -0.960000 1.965842 0.745634
v -0.945000 0.036198 -0.722381
v -0.960000 0.034158 -0.745634
v -0.960000 0.254366 -0.965842
v -0.945000 0.277619 -0.963803
vn -1.0000 -0.0000 -0.0000
vn 0.0000 0.7071 -0.7071
vn -0.7071 -0.5000 0.5000
vn -0.7071 0.5000 -0.5000
vn -0.0000 -0.7071 0.7071
usemtl None
s off
f 133//42 131//42 132//42 138//42
f 131//42 136//42 139//42 132//42
f 140//43 135//43 128//43 130//43
f 137//44 134//44 133//44 138//44
f 135//45 140//45 139//45 136//45
f 134//46 137//46 129//46 127//46
o Cube.005_Cube.006
v -0.722381 1.920000 -0.963803
v -0.963803 1.920000 -0.722381
v 0.963802 1.920000 0.722381
v 0.722381 1.920000 0.963803
v -0.927401 1.960000 -0.927401
v 0.927401 1.960000 0.927401
v -0.745634 1.960000 -0.965842
v -0.722381 1.945000 -0.963803
v -0.963803 1.945000 -0.722381
v -0.965842 1.960000 -0.745634
v 0.963802 1.945000 0.722381
v 0.965842 1.960000 0.745634
v 0.745634 1.960000 0.965842
v 0.722381 1.945000 0.963803
vn 0.0000 1.0000 0.0000
vn -0.7071 0.0000 0.7071
vn 0.5000 0.7071 -0.5000
vn -0.5000 0.7071 0.5000
vn 0.7071 0.0000 -0.7071
usemtl None
s off
f 147//47 145//47 146//47 152//47
f 145//47 150//47 153//47 146//47
f 154//48 149//48 142//48 144//48
f 151//49 148//49 147//49 152//49
f 149//50 154//50 153//50 150//50
f 148//51 151//51 143//51 141//51
